<?xml version="1.0" encoding="UTF-8"?>
<svg width="287px" height="191px" viewBox="0 0 287 191" version="1.1" xmlns="http://www.w3.org/2000/svg" xmlns:xlink="http://www.w3.org/1999/xlink">
    <!-- Generator: Sketch 53.1 (72631) - https://sketchapp.com -->
    <title>4</title>
    <desc>Created with Sketch.</desc>
    <defs>
        <linearGradient x1="50%" y1="25.3013791%" x2="50%" y2="87.5523281%" id="linearGradient-1">
            <stop stop-color="#EEF4F8" offset="0%"></stop>
            <stop stop-color="#FFFFFF" offset="100%"></stop>
        </linearGradient>
        <linearGradient x1="43.0903754%" y1="87.9944956%" x2="45.8357113%" y2="27.0530739%" id="linearGradient-2">
            <stop stop-color="#00031B" stop-opacity="0" offset="0%"></stop>
            <stop stop-color="#000513" offset="100%"></stop>
        </linearGradient>
        <linearGradient x1="114.263616%" y1="71.8609732%" x2="15.6026538%" y2="36.1096477%" id="linearGradient-3">
            <stop stop-color="#000000" stop-opacity="0" offset="0%"></stop>
            <stop stop-color="#000000" stop-opacity="0.25" offset="100%"></stop>
        </linearGradient>
        <linearGradient x1="74.1261363%" y1="100%" x2="37.0863932%" y2="18.2302517%" id="linearGradient-4">
            <stop stop-color="#000000" stop-opacity="0" offset="0%"></stop>
            <stop stop-color="#000000" stop-opacity="0.25" offset="100%"></stop>
        </linearGradient>
        <linearGradient x1="41.1555062%" y1="87.9944956%" x2="44.6696054%" y2="27.0530739%" id="linearGradient-5">
            <stop stop-color="#00031B" stop-opacity="0" offset="0%"></stop>
            <stop stop-color="#000513" offset="100%"></stop>
        </linearGradient>
    </defs>
    <g id="网站设计" stroke="none" stroke-width="1" fill="none" fill-rule="evenodd">
        <g id="首页" transform="translate(-964.000000, -845.000000)" fill-rule="nonzero">
            <g id="分组" transform="translate(924.000000, 672.000000)">
                <g id="4" transform="translate(40.000000, 172.000000)">
                    <g id="窗户-半圆" transform="translate(107.198376, 0.977034)" fill="url(#linearGradient-1)">
                        <path d="M34.635206,80.1728395 L34.635206,110.742272 L0.326023534,110.742272 L0.326023534,35.426963 C0.331876931,16.5678057 15.4772146,1.07893091 34.635206,0.339555556 L34.635206,45.4249877 L0.335612461,45.4249877 L0.335612461,48.1791605 L34.635206,48.1791605 L34.635206,77.4186667 L0.335612461,77.4186667 L0.335612461,80.1728395 L34.635206,80.1728395 Z M37.3968171,0.377283951 C56.5548086,1.1166593 71.7001462,16.6055341 71.7059996,35.4646914 L71.7059996,110.761136 L37.3968171,110.761136 L37.3968171,80.1728395 L71.7059996,80.1728395 L71.7059996,77.4563951 L37.3968171,77.4563951 L37.3968171,48.2168889 L71.7059996,48.2168889 L71.7059996,45.462716 L37.3968171,45.462716 L37.3968171,0.377283951 Z" id="Combined-Shape"></path>
                    </g>
                    <g id="数据3" transform="translate(0.218750, 76.905429)">
                        <ellipse id="Oval" fill="#F4F8FD" cx="143.354466" cy="100.473074" rx="143.181865" ry="13.9878025"></ellipse>
                        <g id="桌子" transform="translate(60.410243, 48.103704)" fill="#2D8CEF">
                            <path d="M153.273762,5.14049383 L10.6723866,5.14049383 L5.27391011,43.7272099 C5.14946123,44.4038004 4.5336883,44.8843239 3.83557099,44.8496296 L2.39723187,44.8496296 C2.01212101,44.8769528 1.63350776,44.7410143 1.35684602,44.4760864 C1.08018428,44.2111584 0.931873079,43.8425203 0.949303819,43.4631111 L6.31083157,5.14049383 L2.78683738,5.14049383 C1.80377053,5.14049383 1.00683738,4.34356068 1.00683738,3.36049383 L1.00683738,1.92148148 C1.00683738,0.938414627 1.80377053,0.141481481 2.78683738,0.141481481 L163.628999,0.141481481 C164.612066,0.141481481 165.408999,0.938414627 165.408999,1.92148148 L165.408999,3.36049383 C165.408999,4.34356068 164.612066,5.14049383 163.628999,5.14049383 L157.413153,5.14049383 L162.513143,43.4631111 C162.537873,43.8311337 162.402716,44.192199 162.141263,44.4565702 C161.879809,44.7209415 161.516608,44.863796 161.141926,44.8496296 L159.770709,44.8496296 C159.090464,44.8714959 158.501221,44.3891665 158.399493,43.7272099 L153.273762,5.14049383 Z" id="Combined-Shape"></path>
                        </g>
                        <g id="女人" transform="translate(153.422840, 0.000000)">
                            <polygon id="Shape" fill="#FFC5BA" points="56.7280949 42.6519506 56.2965932 43.3027654 55.8075579 43.4914074 44.2208452 48.2464747 39.8419936 47.650963 53.8897724 39.6619753 52.9692353 40.5108642 60.9855787 24.8441481 66.499212 27.9756049"></polygon>
                            <path d="M62.5677517,20.4676543 C61.8615284,21.7959253 61.2402376,23.1662412 60.7074998,24.5706173 C59.0390264,28.3434568 57.4472645,29.4056364 57.2075413,31.8674142 C56.6897392,37.1116611 60.544488,35.0666642 60.7074998,40.9900222 C60.7583595,44.6327205 59.3637005,50.1218324 57.2075413,53.0838519 L73.2785837,53.4988642 C73.2785837,53.4988642 74.6686864,46.7316281 74.6686864,39.4320679 C74.6686864,32.1325077 74.6686864,19.2105324 69.5868466,17.7512099 C69.2857252,17.6647386 68.8484992,17.4399506 68.5320646,17.3361975 C65.8855206,16.4495802 63.2869213,19.1848889 62.5677517,20.4676543 Z" id="Shape" fill="#EE5670"></path>
                            <path d="M64.1882805,11.5071605 L64.5238929,18.1662222 L63.3540438,19.3546667 C63.1838024,19.5235516 63.1262639,19.7730905 63.2057747,19.9976948 C63.2852855,20.2222991 63.4879494,20.3827138 63.728012,20.4110617 C65.578675,20.6468642 68.1964522,21.8353086 71.8594225,19.2131852 C71.2265532,18.6378272 71.0347747,18.4586173 70.603273,18.1284938 C70.2726095,17.9177576 69.9780756,17.6566942 69.7306806,17.3550617 L68.7717878,8.45116049 L64.1882805,11.5071605 Z" id="Shape" fill="#FFC5BA"></path>
                            <path d="M64.1882805,11.5071605 L64.5238929,18.1662222 L63.3540438,19.3546667 C63.1838024,19.5235516 63.1262639,19.7730905 63.2057747,19.9976948 C63.2852855,20.2222991 63.4879494,20.3827138 63.728012,20.4110617 C65.578675,20.6468642 68.1964522,21.8353086 71.8594225,19.2131852 C71.2265532,18.6378272 71.0347747,18.4586173 70.603273,18.1284938 C70.2726095,17.9177576 69.9780756,17.6566942 69.7306806,17.3550617 L68.7717878,8.45116049 L64.1882805,11.5071605 Z" id="Shape" fill="url(#linearGradient-2)" opacity="0.07"></path>
                            <path d="M7.94397167,99.0640793 L7.91086516,101.376198 L1.11231559,101.376198 C0.450679591,101.38563 0.335612461,101.008346 0.853414545,100.546173 C0.853414545,100.546173 0.738347415,100.451852 1.81230729,99.895358 C3.03307983,99.3954734 4.29344777,98.9948403 5.58075579,98.6974815 L5.81530656,98.6974815 L26.5037955,56.3662222 L26.6284516,56.1304198 C27.1320264,55.0785856 28.2179627,54.4169821 29.3996516,54.4420741 L30.3585444,54.4420741 L72.5498252,53.0838519 C72.5498252,53.0838519 76.7114198,63.600642 68.1772743,67.1659753 C61.1390015,70.099358 31.7393499,63.789284 31.7393499,63.789284 C30.2646966,68.3606129 28.1058626,72.6903169 25.3339464,76.6358025 C21.0572847,82.4459753 8.17935513,99.0747654 8.17935513,99.0747654 L7.94397167,99.0640793 Z" id="Combined-Shape" fill="#123D89"></path>
                            <path d="M7.94397167,99.0640793 L7.91086516,101.376198 L1.11231559,101.376198 C0.450679591,101.38563 0.335612461,101.008346 0.853414545,100.546173 C0.853414545,100.546173 0.738347415,100.451852 1.81230729,99.895358 C3.03307983,99.3954734 4.29344777,98.9948403 5.58075579,98.6974815 L5.81530656,98.6974815 L26.5037955,56.3662222 L26.6284516,56.1304198 C27.1320264,55.0785856 28.2179627,54.4169821 29.3996516,54.4420741 L30.3585444,54.4420741 L72.5498252,53.0838519 C72.5498252,53.0838519 76.7114198,63.600642 68.1772743,67.1659753 C61.1390015,70.099358 31.7393499,63.789284 31.7393499,63.789284 C30.2646966,68.3606129 28.1058626,72.6903169 25.3339464,76.6358025 C21.0572847,82.4459753 8.17935513,99.0747654 8.17935513,99.0747654 L7.94397167,99.0640793 Z" id="Combined-Shape" fill="url(#linearGradient-3)"></path>
                            <path d="M52.0928091,96.5624767 L52.1062319,96.546963 L54.7911316,98.3296296 L49.5363993,104.818914 C49.0281861,105.441432 48.5775066,105.271654 48.5295619,104.432198 C48.5295619,104.432198 48.3761391,104.432198 48.6925737,102.989086 C49.0978417,101.552451 49.596663,100.142955 50.1859457,98.7693337 C47.3157778,94.6947207 26.6109805,65.1913456 26.7626966,62.2329877 C26.7796362,60.174639 27.5961143,58.2005726 29.0448613,56.7152099 C29.7594507,55.9818545 30.6172192,55.3979739 31.5667492,54.9985679 C34.3187714,53.3196543 72.3868135,53.0178272 72.3868135,53.0178272 C72.3868135,53.0178272 73.0388605,53.8101235 73.3457062,58.0828642 C73.7100855,64.1382716 69.5814608,67.7498812 64.7006967,68.0422762 C54.7282121,68.6459306 35.7954662,64.9305679 35.7954662,64.9305679 C35.7954662,64.9305679 40.724175,67.0905185 43.0734622,74.0985679 C45.3914658,81.041706 51.075235,94.2167835 52.0928091,96.5624767 Z" id="Combined-Shape" fill="#123D89"></path>
                            <path d="M72.1566792,29.6922469 C71.5333989,31.1542222 70.8334072,32.5784691 70.1717712,34.0215802 C69.5101352,35.4646914 68.7909657,36.8512099 68.0717961,38.3037531 C67.1256886,40.1901728 65.134388,43.639177 62.0978943,48.6507654 C61.7957619,48.9552337 61.4755709,49.241842 61.1390015,49.5090864 C60.6003287,49.9341774 59.9709641,50.23404 59.2979275,50.3862716 C58.8124453,50.4845993 58.3163394,50.5226246 57.8212326,50.4994568 C57.5791827,50.4994568 50.6899444,49.749096 37.1535177,48.2483745 L37.4155393,46.0765854 L55.5103011,45.1420247 L57.8020548,45.1420247 C57.9842444,45.1420247 58.0609558,45.0948642 57.9458887,45.1420247 C57.8077528,45.1722167 57.639043,45.1891852 57.773288,45.0194074 C59.7933554,40.7246584 61.2508724,37.6152099 62.1458389,35.6910617 C62.797886,34.2479506 63.4786998,32.8614321 64.1691026,31.3805926 C64.8595054,29.8997531 65.5594971,28.550963 66.3170224,27.126716 L72.1566792,29.6922469 Z" id="Shape" fill="#FFC5BA"></path>
                            <path d="M67.026603,40.9919012 C67.9854958,39.0300247 69.2128785,37.1624691 70.200538,35.2100247 C71.1881975,33.2575802 75.1388356,27.4474074 71.9840785,21.5712099 L71.7347664,21.4768889 C70.5636773,20.8776206 69.1985158,20.7605744 67.9396823,21.1515061 C66.6808487,21.5424377 65.6314909,22.4093146 65.0225172,23.5613827 C64.7668124,24.1084444 64.5175003,24.6555062 64.2745808,25.2025679 C63.3156881,27.1833086 62.5869296,29.220642 61.6376258,31.1919506 C60.688322,33.1632593 61.2540687,35.9834568 60.2664091,37.9264691 L67.026603,40.9919012 Z" id="Shape" fill="#EE5670"></path>
                            <path d="M63.8718459,2.96167901 C63.8718459,2.96167901 64.2170473,0.565925926 62.5869296,1.30162963 C61.1006458,1.97130864 58.2527344,4.41422222 60.554077,7.09293827 L62.1170721,6.53644444 L59.4225835,15.0253333 L64.3033476,13.563358 L63.8718459,2.96167901 Z" id="Shape" fill="#123D89"></path>
                            <path d="M65.5356694,1.55978813 L67.4531672,1.55978813 C70.0053687,1.55978813 72.0743369,3.59491792 72.0743369,6.10537774 L72.0743369,9.61359213 C72.0743369,12.124052 70.0053687,14.1591817 67.4531672,14.1591817 L62.2567481,14.1591817 C61.5207398,14.1591817 60.9240871,13.5722875 60.9240871,12.8483167 L60.9240871,6.10537774 C60.9240816,3.59859623 62.9872127,1.56498892 65.5356694,1.55978813 Z" id="Shape" fill="#FFC5BA" transform="translate(66.499212, 7.859485) rotate(8.049062) translate(-66.499212, -7.859485) "></path>
                            <path d="M61.1895987,6.09369036 L59.2046907,9.16855456 C59.1561753,9.24659182 59.1475825,9.34246526 59.1814693,9.42764828 C59.215356,9.5128313 59.2878168,9.57750685 59.3772914,9.6024311 L61.3717883,10.0929002 L61.1895987,6.09369036 Z" id="Shape" fill="#FFC5BA"></path>
                            <path d="M61.7910486,2.35802469 C61.7910486,2.35802469 63.2869213,8.25308642 67.0745476,6.8948642 C67.0745476,6.8948642 68.6950764,6.1497284 68.7046653,7.97012346 C68.5561052,9.05504409 67.7379691,9.9350103 66.6526348,10.1772346 L64.7923829,17.1758519 L73.1347498,13.563358 C73.1347498,13.563358 75.1100689,3.62192593 70.6703954,1.5562963 C68.7334321,0.660246914 63.8239012,-0.565925926 61.7910486,2.35802469 Z" id="Shape" fill="#123D89"></path>
                            <path d="M37.4255839,46.0569383 C37.4255839,46.0569383 32.516053,43.8026667 30.7708682,48.0942716 C30.7708682,48.0942716 35.9297112,47.8773333 37.1762718,48.2451852 L37.4255839,46.0569383 Z" id="Shape" fill="#FFC5BA"></path>
                            <g id="椅子" transform="translate(30.684568, 31.125926)">
                                <path d="M21.0956404,66.0246914 L21.0956404,66.0246914 C20.7312612,66.0246914 20.4340044,65.8077531 20.4340044,65.5436543 L11.5834244,35.7759506 L12.9162853,35.7759506 L21.7572764,65.5436543 C21.7476875,65.8266173 21.4504307,66.0246914 21.0956404,66.0246914 Z" id="Shape" fill="#81BAF5"></path>
                                <path d="M53.8705945,71.146321 L53.8705945,71.146321 C53.5414726,71.1741069 53.24904,70.940652 53.2089585,70.6181235 L44.4350899,38.0019259 L45.748773,38.0019259 L54.5322305,70.6181235 C54.492149,70.940652 54.1997165,71.1741069 53.8705945,71.146321 Z" id="Shape" fill="#2D8CEF"></path>
                                <path d="M0.767114198,71.146321 L0.767114198,71.146321 C1.11012747,71.1737586 1.41256006,70.9265518 1.44792805,70.5898272 L10.4806977,35.9645926 L9.11907002,35.9645926 L0.0863003472,70.5898272 C0.121668339,70.9265518 0.424100923,71.1737586 0.767114198,71.146321 Z" id="Shape" fill="#2D8CEF"></path>
                                <path d="M61.8485822,0.528197531 C61.8485822,1.06582716 46.4199979,38.9262716 46.4199979,38.9262716 L8.14099942,38.2094321 L8.25606655,36.577679 C8.44768822,34.5320941 10.2247744,32.986562 12.3121829,33.0500741 L40.2351397,33.333037 C41.9860737,33.3681746 43.5864515,32.363364 44.291256,30.7863704 L55.7979689,4.00864198 C56.8336844,1.68929311 59.2658649,0.285801442 61.8294043,0.528197531 L61.8485822,0.528197531 Z" id="Shape" fill="#2D8CEF"></path>
                            </g>
                        </g>
                        <g id="电脑" transform="translate(114.216337, 6.456014)">
                            <path d="M32.8434371,37.0114687 L32.8434371,40.984968 L37.5235494,40.984968 C37.9846098,40.9766865 38.4294119,41.1524953 38.7564571,41.4722767 C39.0835023,41.7920582 39.2648866,42.228528 39.259349,42.6820891 L13.7199389,42.6820891 C13.7145405,42.233864 13.8916984,41.8021242 14.2119879,41.4832542 C14.5322775,41.1643843 14.9690297,40.984935 15.424741,40.984968 L20.0945219,40.984968 L20.0945219,37.0114687 L1.81832178,37.0114687 C1.36716609,37.0141747 0.933543833,36.8397788 0.613554464,36.5269305 C0.293565095,36.2140822 0.113636724,35.78862 0.113645111,35.3448348 L0.113645111,33.1091063 L52.8243138,33.1091063 L52.8243138,35.3448348 C52.8243222,35.78862 52.6443939,36.2140822 52.3244045,36.5269305 C52.0044151,36.8397788 51.5707929,37.0141747 51.1196372,37.0114687 L32.8434371,37.0114687 Z" id="Combined-Shape" fill="#2D8CEF"></path>
                            <path d="M52.8243138,2.56092535 C52.824331,1.63319803 52.0627728,0.879555305 51.1196372,0.873966587 L1.81832178,0.873966587 C0.87518613,0.879555305 0.113627997,1.63319803 0.113645111,2.56092535 L0.113645111,33.5359272 L52.8036511,33.5359272 L52.8243138,2.56092535 Z" id="Shape" fill="#123D89"></path>
                            <polygon id="Rectangle-path" fill="#FFFFFF" points="2.92377876 3.60765277 50.0245116 3.60765277 50.0245116 30.7615914 2.92377876 30.7615914"></polygon>
                            <path d="M13.5237682,7.88602409 C9.82472512,7.88191273 6.48758918,10.0705551 5.06912957,13.4309526 C3.65066997,16.7913502 4.43037678,20.6613777 7.0445179,23.2356729 C9.65865901,25.809968 13.5921499,26.5812975 17.0100227,25.1898371 C20.4278955,23.7983768 22.6567002,20.5182969 22.6567026,16.87975 C22.6567058,11.9166183 18.5694193,7.89163214 13.5237682,7.88602409 Z M13.5237682,22.2048487 C10.5338975,22.2048487 8.11012837,19.8207208 8.11012837,16.87975 C8.11012837,13.9387792 10.5338975,11.5546513 13.5237682,11.5546513 C16.5136389,11.5546513 18.937408,13.9387792 18.937408,16.87975 C18.937408,19.8207208 16.5136389,22.2048487 13.5237682,22.2048487 L13.5237682,22.2048487 Z" id="Shape" fill="#2D8CEF" opacity="0.1"></path>
                            <path d="M18.7307806,15.6399369 C18.8264995,16.0464986 18.8750227,16.4624287 18.8754198,16.87975 C18.8754198,19.8207208 16.4516507,22.2048487 13.46178,22.2048487 C12.0388961,22.1996678 10.6776472,21.6330154 9.68323027,20.6319368 C8.68881334,19.6308583 8.14442411,18.2791069 8.17211661,16.87975 C8.21163044,13.9312625 10.6499767,11.5599483 13.6477447,11.5546513 L13.6477447,7.88602409 C9.93618395,7.82413629 6.55495073,9.97571311 5.09078958,13.3310629 C3.62662842,16.6864128 4.37017126,20.579508 6.97248844,23.1833975 C9.57480562,25.787287 13.5193444,26.585106 16.9550123,25.2024541 C20.3906802,23.8198022 22.6355066,20.5311319 22.6360398,16.87975 C22.6281215,16.337478 22.5728172,15.7968797 22.4707378,15.2639281 L18.7307806,15.6399369 Z" id="Shape" fill-opacity="0.2" fill="#2D8CEF"></path>
                            <path d="M32.4033408,19.0138545 L46.3940465,19.0138545 C46.8413972,19.0138545 47.2040465,19.3765038 47.2040465,19.8238545 L47.2040465,19.860326 C47.2040465,20.3076767 46.8413972,20.670326 46.3940465,20.670326 L32.4033408,20.670326 C31.9559902,20.670326 31.5933408,20.3076767 31.5933408,19.860326 L31.5933408,19.8238545 C31.5933408,19.3765038 31.9559902,19.0138545 32.4033408,19.0138545 Z" id="Rectangle-path" fill-opacity="0.2" fill="#2D8CEF"></path>
                            <path d="M32.4033408,21.3715318 L39.8026301,21.3715318 C40.2499808,21.3715318 40.6126301,21.7341811 40.6126301,22.1815318 L40.6126301,22.2180033 C40.6126301,22.665354 40.2499808,23.0280033 39.8026301,23.0280033 L32.4033408,23.0280033 C31.9559902,23.0280033 31.5933408,22.665354 31.5933408,22.2180033 L31.5933408,22.1815318 C31.5933408,21.7341811 31.9559902,21.3715318 32.4033408,21.3715318 Z" id="Rectangle-path" fill-opacity="0.2" fill="#2D8CEF"></path>
                            <path d="M32.4033408,10.9347447 L46.3940465,10.9347447 C46.8413972,10.9347447 47.2040465,11.2973941 47.2040465,11.7447447 L47.2040465,11.7812163 C47.2040465,12.2285669 46.8413972,12.5912163 46.3940465,12.5912163 L32.4033408,12.5912163 C31.9559902,12.5912163 31.5933408,12.2285669 31.5933408,11.7812163 L31.5933408,11.7447447 C31.5933408,11.2973941 31.9559902,10.9347447 32.4033408,10.9347447 Z" id="Rectangle-path" fill-opacity="0.2" fill="#2D8CEF"></path>
                            <path d="M32.4033408,13.292422 L39.8026301,13.292422 C40.2499808,13.292422 40.6126301,13.6550714 40.6126301,14.102422 L40.6126301,14.1388936 C40.6126301,14.5862442 40.2499808,14.9488936 39.8026301,14.9488936 L32.4033408,14.9488936 C31.9559902,14.9488936 31.5933408,14.5862442 31.5933408,14.1388936 L31.5933408,14.102422 C31.5933408,13.6550714 31.9559902,13.292422 32.4033408,13.292422 Z" id="Rectangle-path" fill-opacity="0.2" fill="#2D8CEF"></path>
                            <path d="M27.8460559,10.8331207 L27.9743563,10.8331207 C28.9574232,10.8331207 29.7543563,11.6300539 29.7543563,12.6131207 L29.7543563,12.6810983 C29.7543563,13.6641651 28.9574232,14.4610983 27.9743563,14.4610983 L27.8460559,14.4610983 C26.862989,14.4610983 26.0660559,13.6641651 26.0660559,12.6810983 L26.0660559,12.6131207 C26.0660559,11.6300539 26.862989,10.8331207 27.8460559,10.8331207 Z" id="Rectangle-path" fill-opacity="0.2" fill="#2D8CEF"></path>
                            <path d="M27.8460559,19.2577521 L27.9743563,19.2577521 C28.9574232,19.2577521 29.7543563,20.0546853 29.7543563,21.0377521 L29.7543563,21.1057297 C29.7543563,22.0887965 28.9574232,22.8857297 27.9743563,22.8857297 L27.8460559,22.8857297 C26.862989,22.8857297 26.0660559,22.0887965 26.0660559,21.1057297 L26.0660559,21.0377521 C26.0660559,20.0546853 26.862989,19.2577521 27.8460559,19.2577521 Z" id="Rectangle-path" fill-opacity="0.2" fill="#2D8CEF"></path>
                        </g>
                    </g>
                    <g id="侧面-走路" transform="translate(69.868094, 107.347405) scale(-1, 1) translate(-69.868094, -107.347405) translate(26.368094, 36.347405)">
                        <path d="M14.1969729,10.4393607 C13.0209893,10.1616823 11.9007594,9.68934525 10.8844465,9.04188262 C10.8415206,9.01143603 10.7945272,8.98696407 10.744797,8.9691597 C9.8432359,8.63563902 8.96028777,8.2553299 8.09967116,7.82983401 C7.93108944,7.75800149 7.83528065,7.58116568 7.86866361,7.40345969 C7.90204657,7.2257537 8.05577403,7.0942737 8.23932066,7.0864442 C8.75684529,7.0864442 9.51259554,7.48238008 10.8680172,7.58742429 C11.0195602,7.6006995 11.1657632,7.5287936 11.2458923,7.40157683 C11.5661909,6.89153216 11.6240019,6.26301884 11.4019712,5.70470878 C10.7591087,4.25968043 10.5018108,2.67717405 10.6544356,1.1070044 C10.6803462,0.910944616 10.8441607,0.760612558 11.0447967,0.748771288 C11.2454326,0.736930018 11.4263459,0.86691669 11.4759033,1.05852245 C12.1905801,3.03012152 13.71851,6.77131156 15.977546,8.65402706 C16.0327393,8.70722075 16.0638421,8.78002835 16.0638421,8.85603516 C16.0638421,8.86445254 16.0634606,8.87283067 16.0627072,8.88114728 C17.4059279,9.9527787 18.714052,11.0777148 20.0355963,12.1366467 C21.4978087,13.3082937 22.9353771,14.5607439 24.3565162,15.8212745 C27.2234383,18.2857733 30.0328578,20.8068344 32.8176331,23.3521365 L33.1544349,23.764233 C33.2037229,23.764233 33.2365816,23.764233 33.1544349,23.6834298 C32.9292451,23.4563704 32.6451524,23.2942916 32.3329672,23.214771 C31.9633068,23.1339678 31.8154426,23.1662891 31.856516,23.1420481 L32.2754645,23.0127629 C32.8751359,22.8269155 33.3187284,22.7541925 33.786965,22.641068 L35.18346,22.3259354 C37.0454534,21.9165323 38.9183996,21.517903 40.8022988,21.1300474 C42.686198,20.7421918 44.5646207,20.3812707 46.437567,20.047284 C48.3269426,19.7321513 50.2163182,19.3846974 52.1139085,19.1180467 L53.3953981,26.5196235 C51.5388812,26.9074791 49.6741496,27.2064511 47.809418,27.5377444 C45.9446864,27.8690377 44.0717401,28.1195277 42.1987938,28.3457768 C40.3258476,28.5720259 38.4446866,28.8629175 36.5635257,29.0891666 L35.1506013,29.2588534 C34.6823647,29.323496 34.1812695,29.3638976 33.8608971,29.4366205 C33.5405247,29.5093434 33.3187284,29.5416647 32.8833505,29.598227 C32.2523714,29.6894695 31.609965,29.670321 30.9857602,29.5416647 C30.1985948,29.3639848 29.4731279,28.9848839 28.882803,28.4427407 C28.5199596,28.0958861 28.200103,27.7080291 27.9299005,27.2872543 L28.2667023,27.6993509 C25.8022993,24.8469965 23.3378963,21.9784814 20.9884988,19.0534041 C19.789156,17.5989458 18.6144572,16.1283268 17.4397585,14.6496275 C16.3375813,13.2622177 15.2498676,11.8676944 14.1969729,10.4393607 Z" id="Combined-Shape" fill="#FFC5BA"></path>
                        <path d="M57.2480814,25.4934224 C55.6051461,25.9135992 53.9813784,26.314922 52.3767782,26.6973907 L47.4479722,27.8043951 L42.5191662,28.8467569 C40.8762309,29.1861305 39.2332956,29.5039566 37.5903603,29.8002351 L34.9863078,22.1400879 C36.4923318,21.3966981 38.0065705,20.6721624 39.5290239,19.9664807 L44.0963841,17.8736768 L48.6883884,15.8535958 C50.2272711,15.1910092 51.7688921,14.5472767 53.3132513,13.9223983 L57.2480814,25.4934224 Z" id="Shape" fill="#2D8CEF"></path>
                        <path d="M26.3509151,138.72157 L26.479848,138.759231 L26.2826958,140.957079 C26.2708859,141.094499 26.2010882,141.220766 26.0902511,141.305222 C25.979414,141.389677 25.8376758,141.424595 25.6994538,141.401497 L15.2668144,140.019762 C15.1114637,139.991847 14.996692,139.861506 14.9907741,139.706276 C14.9848562,139.551047 15.0893814,139.412617 15.2421704,139.373336 L23.2432654,137.813833 L23.3609894,137.84822 C24.1962868,133.377889 26.7391922,121.477576 30.9897055,102.147283 L31.7865291,99.9009527 C33.2925532,95.7907612 37.7831254,83.7409359 45.2582458,63.7514767 L62.5724417,72.1529621 C50.8984449,89.9028458 44.0565178,100.622795 42.0466602,104.31281 L41.5044916,105.32285 C33.4503658,123.428946 28.3991737,134.561852 26.3509151,138.72157 Z" id="Combined-Shape" fill="#123D89"></path>
                        <path d="M26.3509151,138.72157 L26.479848,138.759231 L26.2826958,140.957079 C26.2708859,141.094499 26.2010882,141.220766 26.0902511,141.305222 C25.979414,141.389677 25.8376758,141.424595 25.6994538,141.401497 L15.2668144,140.019762 C15.1114637,139.991847 14.996692,139.861506 14.9907741,139.706276 C14.9848562,139.551047 15.0893814,139.412617 15.2421704,139.373336 L23.2432654,137.813833 L23.3609894,137.84822 C24.1962868,133.377889 26.7391922,121.477576 30.9897055,102.147283 L31.7865291,99.9009527 C33.2925532,95.7907612 37.7831254,83.7409359 45.2582458,63.7514767 L62.5724417,72.1529621 C50.8984449,89.9028458 44.0565178,100.622795 42.0466602,104.31281 L41.5044916,105.32285 C33.4503658,123.428946 28.3991737,134.561852 26.3509151,138.72157 Z" id="Combined-Shape" fill="url(#linearGradient-4)"></path>
                        <path d="M61.6100747,59.9964061 C62.7929882,60.6105107 64.0744777,61.4185431 66.0295707,64.5133073 C69.1100745,69.5635098 69.22508,77.3206209 69.8165367,81.0779716 C70.4079934,84.8353223 70.8926593,88.6169139 71.459472,92.3904252 C72.0262847,96.1639366 73.0284752,102.72516 73.0284752,102.72516 C74.9835683,108.316744 84.340085,133.204142 85.4901397,135.911051 L83.0257367,137.074617 C81.3828014,134.65052 60.6818163,102.159537 60.6818163,102.159537 C59.1292424,98.7011583 54.6768876,89.7481593 52.9518056,86.3382625 C51.2267235,82.9283658 49.2962745,78.4437859 45.903613,69.4503853 C44.6719588,66.5335409 43.8271203,63.472885 43.389922,60.34386 L61.6100747,59.9964061 Z" id="Shape" fill="#123D89"></path>
                        <path d="M51.5060225,14.0920852 C51.5060225,14.0920852 45.6407434,19.5139826 43.669221,24.6934703 C41.204818,31.1577296 39.0525727,44.4175413 43.389922,68.3272202 C43.389922,68.3272202 47.8915647,71.090691 56.1226707,70.7513174 C64.3537767,70.4119438 67.623218,67.5191878 67.623218,67.5191878 L66.3828018,37.0482858 C66.3828018,37.0482858 67.3110603,19.3442958 51.5060225,14.0920852 Z" id="Shape" fill="#2D8CEF"></path>
                        <path d="M54.2579391,11.3932569 L54.5865262,13.8173541 C54.6790898,14.5640191 55.033508,15.2555473 55.5887167,15.7727926 C56.0076653,16.007122 57.5273804,17.1464476 57.5273804,17.1464476 C57.3713016,17.1464476 54.438662,18.4554601 53.0914551,19.1665287 C52.1139085,19.6755891 50.9556391,20.4189789 49.9452339,21.0896458 C49.5445071,21.3569555 49.0217685,21.3686441 48.609107,21.1195219 C48.1964455,20.8703997 47.970354,20.4066453 48.0312143,19.9341594 L49.435924,12.2740122 L54.3647299,9.27621202 L54.2579391,11.3932569 Z" id="Shape" fill="#FFC5BA"></path>
                        <path d="M54.2579391,11.3932569 L54.5865262,13.8173541 C54.6790898,14.5640191 55.033508,15.2555473 55.5887167,15.7727926 C56.0076653,16.007122 57.5273804,17.1464476 57.5273804,17.1464476 C57.3713016,17.1464476 54.438662,18.4554601 53.0914551,19.1665287 C52.1139085,19.6755891 50.9556391,20.4189789 49.9452339,21.0896458 C49.5445071,21.3569555 49.0217685,21.3686441 48.609107,21.1195219 C48.1964455,20.8703997 47.970354,20.4066453 48.0312143,19.9341594 L49.435924,12.2740122 L54.3647299,9.27621202 L54.2579391,11.3932569 Z" id="Shape" fill="url(#linearGradient-5)" opacity="0.07"></path>
                        <path d="M75.7064598,141.357189 L86.0323083,138.246264 C86.1691513,138.211411 86.2846634,138.121327 86.3503704,137.998217 C86.4160774,137.875108 86.4258666,137.730427 86.3773248,137.599838 L85.2519141,135.175741 L81.9660434,136.113059 L75.345014,140.791566 C75.1862246,140.889744 75.1384128,141.095952 75.2382232,141.252145 C75.3380337,141.408337 75.5476704,141.455367 75.7064598,141.357189 Z" id="Shape" fill="#123D89"></path>
                        <path d="M21.5258148,42.933345 C20.4079603,43.6818776 18.6878958,44.2303255 16.2650597,43.4559828 C14.7426174,42.9401117 13.2624163,42.3107125 11.837349,41.5732673 C11.6319821,41.4439821 11.7141289,41.2096527 11.9605692,41.2096527 L21.6456729,41.2096527 C25.3094187,41.0722872 28.9649498,41.0965281 32.6040515,41.2096527 C34.4277098,41.2096527 36.2431533,41.3066166 38.0585968,41.3793395 C38.9704259,41.3793395 39.8740404,41.4439821 40.7776548,41.492464 L42.1412911,41.5571066 L42.8231093,41.5571066 L43.159911,41.5571066 C43.2313201,41.5028906 43.2736679,41.4195801 43.2749165,41.3308575 C43.2749165,41.3308575 43.2749165,41.3308575 43.2749165,41.2823756 C43.2749165,41.2823756 43.2749165,41.2823756 43.2749165,41.1773314 L43.8252998,39.9491221 C44.5536678,38.3330573 45.3039416,36.7169925 46.0761212,35.1009277 C47.6122657,31.8687981 49.2141277,28.6366685 51.0049272,25.5499847 L57.7738207,28.8790782 C56.2623202,32.1112078 54.5783115,35.2867751 52.8450148,38.4138606 C51.974259,39.9733631 51.0788593,41.5247853 50.1752449,43.0762075 L49.485212,44.2316939 L49.1976983,44.7165133 C49.0744782,44.9023608 48.9430434,45.0801279 48.8116085,45.2498147 C48.5371709,45.5963076 48.2290309,45.9156454 47.8915647,46.2032929 C46.5559538,47.3497111 44.8139212,47.9305726 43.0449055,47.8193578 L42.4123754,47.7466348 L42.0755737,47.6819922 L41.4019702,47.5527071 L40.0711926,47.2860564 C39.1757928,47.1163696 38.2803931,46.9305221 37.393208,46.7446747 C35.6106232,46.3648994 33.8280384,45.9932045 32.0536682,45.581108 C28.5363856,44.7802384 25.019103,43.9317425 21.5258148,42.933345 Z" id="Combined-Shape" fill="#FFC5BA"></path>
                        <path d="M59.7864165,25.7196715 C59.3756827,26.8670775 58.8910168,27.9740819 58.4063508,29.0810863 C57.9216849,30.1880907 57.3959456,31.2789344 56.8619916,32.3616978 C56.3280376,33.4444613 55.7776543,34.5272247 55.2190563,35.5938275 C54.6604583,36.6604302 54.0443575,37.7108724 53.4036128,38.7370735 L46.0104038,35.1655703 C46.4457817,34.0343249 46.9386623,32.9273205 47.4479722,31.8283965 C47.9572822,30.7294724 48.4830215,29.646709 49.0251901,28.5962668 C49.5673588,27.5458247 50.1341715,26.4469006 50.7338429,25.3641372 C51.3335143,24.2813738 51.9331856,23.263253 52.6067891,22.2451321 L59.7864165,25.7196715 Z" id="Shape" fill="#2D8CEF"></path>
                        <path d="M46.1664827,9.85799535 L45.3039416,9.85799535 C45.2113712,9.85571934 45.1255814,9.80972664 45.0734674,9.73443598 C45.0213533,9.65914533 45.0092947,9.56377369 45.041072,9.47822012 L46.1664827,6.7034262 L46.1664827,5.90671688 C46.1664827,3.4165639 48.2187151,1.39789606 50.7502722,1.39789606 L50.7420575,1.39789606 L52.4671396,1.39789606 C54.9986967,1.39789606 57.0509292,3.4165639 57.0509292,5.90671688 L57.0509292,9.18732845 C57.0509292,11.6774814 54.9986967,13.6961493 52.4671396,13.6961493 L47.3986842,13.6961493 C46.7181581,13.6961493 46.1664827,13.1534966 46.1664827,12.4841007 L46.1664827,9.85799535 Z" id="Combined-Shape" fill="#FFC5BA"></path>
                        <path d="M47.6451244,6.0117611 C53.1160991,7.27229165 52.8532294,4.88051573 53.6829118,6.5854641 C53.8472053,6.93291804 54.110075,7.39349651 54.3400859,7.94295855 C54.3400859,8.03992243 54.4797354,8.08032406 54.5372381,7.94295855 C54.7343904,7.56318332 55.1533389,7.13492614 55.6544342,7.43389813 C56.6155513,8.08032406 55.9583772,10.5690639 54.8329665,10.6660278 L54.7836784,12.9850808 C54.7836784,12.9850808 57.1084319,12.1770484 57.0920026,8.80755322 C57.0920026,6.12488563 57.0920026,5.85015462 57.0427145,5.38957614 C56.9934265,4.92899767 56.4019697,2.08472361 53.8225613,1.45445833 C52.0974792,1.03428148 50.0355953,1.2766912 43.6035035,1.38173541 C43.5377861,1.43021736 44.5728354,5.3087729 47.6451244,6.0117611 Z" id="Shape" fill="#123D89"></path>
                        <path d="M44.9178461,47.0982439 C45.5026657,47.0982439 45.9767557,47.5950548 45.9767557,48.2079022 C45.9767557,48.8207496 45.5026657,49.3175606 44.9178461,49.3175606 L14.813045,49.3175606 C14.4188034,49.3175606 14.0572027,49.0880464 13.8745868,48.721905 L0.564092587,22.0346214 C0.293199351,21.4914857 0.493759021,20.8210603 1.01205515,20.5371844 C1.53035127,20.2533085 2.17011566,20.4634801 2.44100889,21.0066158 L15.4544152,47.0982439 L44.9178461,47.0982439 Z" id="Shape" fill="#123D89"></path>
                    </g>
                </g>
            </g>
        </g>
    </g>
</svg>